HIERARCHY
ROOT pelvis
{
  OFFSET 0 100 0
  CHANNELS 6 Xposition Yposition Zposition Zrotation Xrotation Yrotation
  JOINT pelvis_right_femur
  {
    OFFSET -10.78128 -3.44521 -0.5502486
    CHANNELS 3 Zrotation Xrotation Yrotation
    JOINT right_femur_tibia
    {
      OFFSET -0.8047443 -44.0398 -0.1307829
      CHANNELS 3 Zrotation Xrotation Yrotation
      JOINT right_tibia_foot
      {
        OFFSET 3.006224 -47.83518 -5
        CHANNELS 3 Zrotation Xrotation Yrotation
        End Site
        {
          OFFSET 0 -5 15
        }
      }
    }
  }
  JOINT pelvis_left_femur
  {
    OFFSET 10.78128 -3.44521 -0.5502486
    CHANNELS 3 Zrotation Xrotation Yrotation
    JOINT left_femur_tibia
    {
      OFFSET 0.8047443 -44.0398 -0.1307829
      CHANNELS 3 Zrotation Xrotation Yrotation
      JOINT left_tibia_foot
      {
        OFFSET -4.370144 -48.10324 -4.275266
        CHANNELS 3 Zrotation Xrotation Yrotation
        End Site
        {
          OFFSET 0 -5 15
        }
      }
    }
  }
  JOINT pelvis_spine1
  {
    OFFSET 0 6.468898 -3.129235
    CHANNELS 3 Zrotation Xrotation Yrotation
    JOINT spine1
    {
      OFFSET 0 23.15396 4.99043
      CHANNELS 3 Zrotation Xrotation Yrotation
      JOINT spine2
      {
        OFFSET 0 20.79997 -5.064912
        CHANNELS 3 Zrotation Xrotation Yrotation
        JOINT neck
        {
          OFFSET 0 14.38658 9.616178
          CHANNELS 3 Zrotation Xrotation Yrotation
          End Site
          {
            OFFSET 0 20 0
          }
        }
      }
      JOINT right_manubrium
      {
        OFFSET -5.722621 16.35077 3.967754
        CHANNELS 3 Zrotation Xrotation Yrotation
        JOINT right_clavicle
        {
          OFFSET -13.16364 1.694482 -4.693211
          CHANNELS 3 Zrotation Xrotation Yrotation
          JOINT right_humerus
          {
            OFFSET -28.5034 -0.3100689 -2.792744
            CHANNELS 3 Zrotation Xrotation Yrotation
            JOINT right_radius
            {
              OFFSET -25.15693 0.02248979 -1.271978
              CHANNELS 3 Zrotation Xrotation Yrotation
              End Site
              {
                OFFSET -15 0 0
              }
            }
          }
        }
      }
      JOINT left_manubrium
      {
        OFFSET 5.722621 16.35077 3.967754
        CHANNELS 3 Zrotation Xrotation Yrotation
        JOINT left_clavicle
        {
          OFFSET 13.16364 1.694482 -4.693211
          CHANNELS 3 Zrotation Xrotation Yrotation
          JOINT left_humerus
          {
            OFFSET 29.39168 -1.063119 -2.237045
            CHANNELS 3 Zrotation Xrotation Yrotation
            JOINT left_radius
            {
              OFFSET 24.59957 -0.9528479 0.9047498
              CHANNELS 3 Zrotation Xrotation Yrotation
              End Site
              {
                OFFSET 15 -0 -0
              }
            }
          }
        }
      }
    }
  }
}
MOTION
Frames: 21
Frame Time: 0.0416666666667
0 103.5113 0 0.9192938 -1.186399 0.1342482 3.160629 -13.47237 7.372005 -0 35.27548 -0 -5.5797 -14.18296 -2.130968 -7.077837 7.158072 -21.10837 -0 5.445985 -0 10.33826 -14.72029 26.1817 -3.379097 -4.096391 5.131331 2.47243 10.95134 -7.675139 1.241593 22.05189 6.389663 2.51386 -24.74828 9.318471 5.311276 -21.34691 12.36574 86.15473 33.39519 -18.18137 -0 0 16.76775 -9.50106 8.665704 5.291552 6.006742 -20.32301 -1.607931 -93.10932 21.60509 22.12775 0 0 -13.27994 13.74708 16.80375 -3.101658
0.39576 103.4944 2.065065 0.5437069 -0.7786196 0.2377012 3.845423 -16.90776 7.390088 -0 34.94606 -0 -5.949573 -12.76864 -2.124917 -6.88014 8.259821 -21.09089 -0 5.734352 -0 10.05755 -15.79162 26.10951 -3.145381 -3.559254 4.843071 2.461898 10.6435 -7.637155 1.276703 21.91975 6.770023 2.876779 -25.12456 9.564778 5.235913 -20.83328 12.2309 86.43974 33.54098 -18.66652 -0 0 16.05664 -9.204953 8.473767 5.022792 6.423606 -20.59602 -1.584237 -92.85363 22.07588 21.32143 0 0 -14.56858 13.8812 16.60153 -2.857788
0.7001906 103.5114 3.938516 0.2569806 0.5979456 0.302652 4.817054 -22.0878 8.670951 -0 34.67335 -0 -5.701673 -13.88609 -2.8285 -6.824419 10.55998 -22.03033 -0 5.102805 -0 9.96825 -17.51719 26.30342 -3.376514 -3.057956 4.495105 2.786257 9.645525 -7.942196 1.266089 21.55352 7.201997 3.284313 -25.34099 9.766857 6.300406 -19.71746 11.90718 85.82744 36.28815 -19.36284 -0 0 15.55616 -7.35495 8.463088 4.420866 6.462452 -20.30727 -1.207232 -92.57043 24.64486 20.5843 0 0 -17.1693 11.49868 16.40285 0.5993563
0.936061 103.4942 5.797704 -0.1608409 1.875047 0.3453288 6.009291 -26.95957 9.79202 -0 33.4918 -0 -5.473573 -14.47213 -3.408422 -6.590656 12.53085 -22.57678 -0 4.836662 -0 9.543445 -19.18006 26.15112 -3.502272 -2.439489 4.120421 3.184098 8.689611 -8.191403 1.313135 21.13209 7.517369 3.591528 -25.70143 9.973796 7.088931 -18.73723 11.54944 85.23862 38.43111 -19.76401 -0 0 15.16907 -5.839246 8.519935 4.05513 6.494111 -19.89496 -0.813528 -92.36774 26.76149 19.98328 0 0 -19.15337 9.270037 15.84685 3.736649
1.133023 103.387 7.879052 -0.6767475 2.974679 0.3959394 7.243914 -31.32941 10.4341 -0 31.02819 -0 -5.286522 -14.09351 -3.704795 -6.226444 14.10282 -22.54035 -0 5.166058 -0 8.651345 -20.7663 25.39846 -3.513 -1.715607 3.712308 3.656346 7.868316 -8.371136 1.400925 20.6869 7.707511 3.781154 -26.24239 10.16679 7.467502 -17.92792 11.20962 84.77146 39.63853 -19.92086 -0 0 14.76683 -4.904719 8.627201 4.015399 6.521038 -19.44361 -0.4809962 -92.15931 28.16093 19.44251 0 0 -20.45675 7.422422 14.95714 6.204435
1.331173 103.1169 10.46566 -1.158119 3.727551 0.5090956 8.067577 -34.522 9.974846 -0 26.81179 -0 -5.209695 -12.2427 -3.417563 -5.877984 14.96703 -21.57473 -0 6.467091 -0 7.451539 -21.96123 23.86087 -3.390333 -1.067261 3.366898 4.116664 7.487746 -8.479472 1.478077 20.28368 7.756342 3.818738 -26.897 10.2873 7.215527 -17.4358 11.02787 84.77033 39.41042 -20.06225 -0 0 14.12912 -5.016016 8.783123 4.380915 6.606962 -19.30226 -0.3631382 -91.65308 28.04303 18.72442 0 0 -21.16654 6.851819 13.93317 6.802161
1.557395 102.6187 13.84955 -1.418707 3.909699 0.756503 7.974258 -35.87872 7.737672 -0 20.56356 -0 -5.489505 -8.52042 -2.340248 -5.682195 15.05643 -19.35342 -0 9.099256 -0 6.093168 -22.47361 21.42731 -3.081638 -0.7717575 3.178026 4.360617 7.863672 -8.549986 1.445419 20.03313 7.724318 3.74171 -27.41029 10.21145 6.114429 -17.36244 11.12399 85.84825 37.31508 -20.74445 -0 0 12.83531 -6.680955 8.98145 5.170108 6.840403 -20.06156 -0.7372139 -90.50506 25.91256 17.47606 0 0 -22.10085 8.12571 13.09679 4.810469
1.793864 101.8805 18.30296 -1.295564 3.171473 1.195813 6.86493 -34.75886 3.505762 -0 12.88289 -0 -6.669033 -2.900801 -0.573028 -5.641281 14.78368 -15.67988 -0 13.21044 -0 4.714597 -22.02241 18.24804 -2.407894 -1.209163 3.18682 4.045572 9.221638 -8.645263 1.175187 20.08387 7.720298 3.639494 -27.32233 9.740701 3.925792 -17.80407 11.50417 88.73527 32.95606 -22.61466 -0 0 10.33458 -10.37734 9.221387 6.369101 7.247517 -22.46244 -1.980339 -88.52145 21.84622 15.45279 0 0 -24.92121 11.12746 12.74321 0.5768247
1.950286 101.0752 24.0044 -0.9482983 1.427573 1.794406 5.773354 -31.55407 -1.115319 -0 6.785636 -0 -9.054653 3.005356 0.8200619 -5.502841 15.47156 -11.27132 -0 18.63491 -0 3.112367 -20.5513 14.98019 -1.179127 -2.472796 3.169564 3.070755 10.99046 -8.825509 0.7201549 20.50398 7.702064 3.521096 -26.32954 8.800947 0.8869455 -18.4891 11.7668 93.11442 26.98315 -25.44216 -0 0 6.678877 -15.33453 9.463572 7.749984 7.417698 -26.08406 -4.042913 -86.12277 17.84475 13.05065 0 0 -30.48068 13.52628 13.10229 -2.586235
1.915785 100.6971 30.77383 -1.105909 -0.5402963 2.304772 6.126776 -28.23786 -2.837399 -0 7.06483 -0 -11.55707 5.593706 -0.03691359 -4.802688 17.6604 -8.399342 -0 25.9232 -0 0.4234949 -17.99284 12.38576 0.3873777 -3.615577 2.662775 2.211233 11.54224 -9.055149 0.5590114 21.1405 7.266534 3.16059 -25.08048 7.837637 -1.544248 -18.44966 11.36099 96.49983 22.31946 -27.44865 -0 0 3.753224 -18.37838 9.639302 8.507525 6.566411 -27.84323 -5.763369 -84.62755 17.70424 11.64173 0 0 -34.51386 11.46568 14.08914 0.093601
1.714631 101.2236 37.77483 -1.961375 -1.666839 2.392097 7.54968 -25.30758 -0.8325389 -0 12.39431 -0 -12.5573 2.85249 -2.691847 -3.451832 17.64815 -8.63211 -0 36.68036 -0 -3.421554 -14.07376 10.47797 1.456364 -3.231793 1.992068 2.351752 10.41124 -9.02936 0.988371 21.76458 6.326368 2.609421 -24.49757 7.382351 -1.524544 -17.22675 10.81018 96.27179 22.00199 -27.04391 -0 0 3.789722 -17.35503 9.81662 8.047339 4.808029 -25.5906 -5.97454 -85.49629 21.84661 12.57157 0 0 -31.01157 5.672775 14.4055 7.076205
1.476626 102.4554 44.31162 -2.266189 -2.600833 2.059426 7.986032 -20.59012 1.051329 -0 15.31807 -0 -12.57905 -1.746516 -4.316121 -2.545151 12.80122 -9.604419 -0 48.95696 -0 -6.242067 -9.919833 9.346785 1.57316 -1.873605 2.212409 2.724116 9.458688 -8.453502 1.497546 22.4641 5.459311 2.308625 -24.01912 7.081394 -0.3106064 -16.18557 10.86296 94.14393 23.59564 -25.08479 -0 0 5.35742 -15.64212 9.98694 7.531806 3.262198 -22.64891 -5.665584 -87.53556 25.43745 14.73968 0 0 -24.65442 1.357782 14.01845 12.05021
1.213842 103.949 50.38928 -1.73761 -4.156677 1.524104 7.342581 -14.42684 1.255093 -0 15.00259 -0 -12.69084 -4.89624 -4.831611 -2.239911 6.323526 -9.533564 -0 58.23617 -0 -7.242149 -7.086935 9.239571 1.180525 -0.8032737 3.055537 2.587187 9.374515 -7.617795 1.82837 23.2689 4.767549 2.137977 -23.15599 6.639787 -0.01362626 -16.11784 11.12974 92.81365 23.83956 -23.10786 -0 0 6.581795 -15.64082 10.1158 7.72255 2.364937 -21.22392 -5.778152 -88.83428 26.88014 16.45802 0 0 -21.02601 -0.7743818 13.75665 14.55681
0.9097114 105.4541 56.10878 -0.9645287 -5.79231 0.993238 6.536131 -8.04907 0.8368012 -0 13.56582 -0 -12.83889 -7.003846 -4.882788 -1.956608 -0.2424392 -8.869971 -0 62.96564 -0 -7.278945 -5.411755 9.790488 0.6616331 -0.09171791 3.982908 2.13702 9.635231 -6.743221 1.995599 23.93941 4.228968 1.981139 -22.20073 6.175033 -0.3493088 -16.72003 11.36547 92.02061 23.3318 -21.13744 -0 0 7.831205 -16.48245 10.32011 8.354518 1.944921 -20.58998 -6.027775 -89.7101 27.31038 18.06262 0 0 -19.18889 -1.90673 13.55522 16.00467
0.5981375 106.7459 61.55504 -0.2493929 -7.05403 0.581473 5.901415 -1.940459 0.2654493 -0 11.7369 -0 -12.77648 -8.709918 -4.555088 -1.428523 -6.737902 -7.917586 -0 62.82466 -0 -6.87112 -4.548951 10.71278 0.1603086 0.3619463 4.831078 1.570991 9.957253 -5.907317 1.985834 24.33272 3.889085 1.849354 -21.35982 5.76277 -0.8305103 -17.79834 11.54791 91.18072 22.78148 -18.96285 -0 0 9.570387 -17.58665 10.70574 9.26387 1.920631 -20.25569 -6.158073 -90.60998 27.2647 19.94867 0 0 -18.02074 -2.431272 13.32673 16.73752
0.3431151 107.6107 66.82884 0.2464724 -7.729254 0.3243063 5.545566 3.577808 -0.3676301 -0 9.73988 -0 -12.39681 -10.30755 -3.899116 -0.5165977 -12.88717 -6.758528 -0 57.78292 -0 -6.336247 -4.31424 11.80521 -0.2180707 0.57995 5.509835 1.018015 10.19839 -5.187926 1.80931 24.39922 3.748427 1.73963 -20.75744 5.428435 -1.258947 -19.25818 11.65247 90.0453 22.35677 -16.55402 -0 0 11.97577 -18.80219 11.29439 10.40451 2.226813 -20.02499 -6.078734 -91.72248 26.98795 22.21529 0 0 -16.96137 -2.620234 13.05872 16.96985
0.2140483 107.8861 72.04598 0.4237521 -7.704553 0.2105963 5.467087 8.264756 -1.046432 -0 7.704613 -0 -11.70079 -12.00588 -2.996554 0.8112357 -18.33606 -5.455636 -0 48.35639 -0 -5.94748 -4.557593 12.86235 -0.4089099 0.5884347 5.965903 0.5920479 10.22852 -4.652555 1.499319 24.15181 3.786323 1.638995 -20.52032 5.194937 -1.544396 -20.96825 11.63259 88.52169 22.10771 -13.9816 -0 0 14.99492 -20.05462 12.0038 11.74316 2.769924 -19.75939 -5.730579 -93.0888 26.68542 24.77478 0 0 -15.68601 -2.753766 12.67569 16.98129
0.2553966 107.4901 77.33229 0.2426305 -7.072419 0.1983248 5.611358 12.00522 -1.754533 -0 5.763838 -0 -10.81491 -13.82682 -2.000216 2.428225 -22.61525 -4.120308 -0 35.99813 -0 -5.902474 -5.115727 13.78568 -0.3857383 0.4212818 6.174549 0.3717919 9.988434 -4.345763 1.131997 23.6926 3.950932 1.524183 -20.70767 5.098249 -1.743411 -22.72959 11.42721 86.76008 21.93987 -11.44496 -0 0 18.28308 -21.31246 12.63758 13.18475 3.435939 -19.38398 -5.112693 -94.6125 26.48303 27.32388 0 0 -14.02255 -3.009878 12.11298 16.97301
0.4689454 106.4451 82.80159 -0.2392032 -6.131207 0.2242011 5.871094 14.9019 -2.431535 -0 4.100643 -0 -9.943128 -15.60268 -1.098713 4.001989 -25.38169 -2.986402 -0 23.01386 -0 -6.250052 -5.79311 14.63131 -0.1864772 0.1504539 6.161081 0.3683849 9.509849 -4.236098 0.8173742 23.20217 4.174176 1.380917 -21.25177 5.183067 -2.005394 -24.28492 10.99655 85.08899 21.71446 -9.173768 -0 0 21.29639 -22.51369 12.92313 14.56012 4.108427 -18.85841 -4.288161 -96.1175 26.39676 29.45971 0 0 -11.88991 -3.384677 11.37344 16.98436
0.8210758 104.8794 88.54036 -0.8569033 -5.288262 0.2041177 6.095522 17.2594 -2.981378 -0 3.013672 -0 -9.26759 -16.9996 -0.4454141 5.071831 -26.58638 -2.370739 -0 11.8639 -0 -6.848131 -6.40787 15.57288 0.08504364 -0.1233401 5.999339 0.5099035 8.901941 -4.196841 0.6700955 22.88065 4.388828 1.217434 -21.93982 5.481632 -2.476431 -25.38447 10.35603 83.87176 21.31197 -7.304805 -0 0 23.50556 -23.54291 12.62266 15.67353 4.696062 -18.15987 -3.374379 -97.42075 26.3248 30.85294 0 0 -9.281537 -3.693484 10.57663 16.88564
1.270421 103.0093 94.60946 -1.38515 -4.880665 0.05392163 6.10707 19.4138 -3.321328 -0 2.959784 -0 -8.853504 -17.5807 -0.08082508 5.250053 -26.45016 -2.517095 -0 4.276569 -0 -7.430708 -6.863122 16.73785 0.2856816 -0.3170172 5.782951 0.6719541 8.297186 -4.057499 0.7646249 22.86334 4.546172 1.064357 -22.49832 5.98512 -3.192685 -25.86712 9.588643 83.34206 20.6798 -5.842 -0 0 24.60554 -24.27255 11.65844 16.39005 5.140918 -17.28423 -2.509007 -98.39079 26.12068 31.39222 0 0 -6.316589 -3.705109 9.920085 16.51091
